<?xml version="1.0" encoding="us-ascii" standalone="no"?><svg xmlns="http://www.w3.org/2000/svg" xmlns:xlink="http://www.w3.org/1999/xlink" contentStyleType="text/css" height="717.6px" preserveAspectRatio="none" style="width:367px;height:717px;background:#FFFFFF;" version="1.1" viewBox="0 0 367 717" width="367.2px" zoomAndPan="magnify"><defs/><g><ellipse cx="156.6" cy="24" fill="#222222" rx="12" ry="12" style="stroke:#222222;stroke-width:1.2;"/><rect fill="#F1F1F1" height="43.1531" rx="15" ry="15" style="stroke:#181818;stroke-width:0.6;" width="132" x="90.6" y="60"/><text fill="#000000" font-family="sans-serif" font-size="14.4" lengthAdjust="spacing" textLength="108" x="102.6" y="87.5391">Demande Client</text><rect fill="#F1F1F1" height="43.1531" rx="15" ry="15" style="stroke:#181818;stroke-width:0.6;" width="150" x="81.6" y="127.1531"/><text fill="#000000" font-family="sans-serif" font-size="14.4" lengthAdjust="spacing" textLength="126" x="93.6" y="154.6922">Routage via Traefik</text><rect fill="#F1F1F1" height="43.1531" rx="15" ry="15" style="stroke:#181818;stroke-width:0.6;" width="116.4" x="98.4" y="379.8164"/><text fill="#000000" font-family="sans-serif" font-size="14.4" lengthAdjust="spacing" textLength="92.4" x="110.4" y="407.3555">Cr&#233;ation profil</text><polygon fill="#F1F1F1" points="102,320.6379,211.2,320.6379,225.6,335.0379,211.2,349.4379,102,349.4379,87.6,335.0379,102,320.6379" style="stroke:#181818;stroke-width:0.6;"/><text fill="#000000" font-family="sans-serif" font-size="13.2" lengthAdjust="spacing" textLength="22.8" x="161.4" y="363.682">true</text><text fill="#000000" font-family="sans-serif" font-size="13.2" lengthAdjust="spacing" textLength="109.2" x="102" y="340.5035">Nouvel utilisateur ?</text><text fill="#000000" font-family="sans-serif" font-size="13.2" lengthAdjust="spacing" textLength="28.8" x="225.6" y="331.725">false</text><polygon fill="#F1F1F1" points="156.6,446.9695,171,461.3695,156.6,475.7695,142.2,461.3695,156.6,446.9695" style="stroke:#181818;stroke-width:0.6;"/><rect fill="#F1F1F1" height="43.1531" rx="15" ry="15" style="stroke:#181818;stroke-width:0.6;" width="286.8" x="13.2" y="253.4848"/><text fill="#000000" font-family="sans-serif" font-size="14.4" lengthAdjust="spacing" textLength="262.8" x="25.2" y="281.0238">Redirection vers page de login Keycloak</text><polygon fill="#F1F1F1" points="112.8,499.7695,200.4,499.7695,214.8,514.1695,200.4,528.5695,112.8,528.5695,98.4,514.1695,112.8,499.7695" style="stroke:#181818;stroke-width:0.6;"/><text fill="#000000" font-family="sans-serif" font-size="13.2" lengthAdjust="spacing" textLength="21.6" x="161.4" y="542.8137">yes</text><text fill="#000000" font-family="sans-serif" font-size="13.2" lengthAdjust="spacing" textLength="87.6" x="112.8" y="519.6352">Login correct ?</text><text fill="#000000" font-family="sans-serif" font-size="13.2" lengthAdjust="spacing" textLength="14.4" x="214.8" y="510.8566">no</text><polygon fill="#F1F1F1" points="64.2,194.3063,249,194.3063,263.4,208.7062,249,223.1063,64.2,223.1063,49.8,208.7062,64.2,194.3063" style="stroke:#181818;stroke-width:0.6;"/><text fill="#000000" font-family="sans-serif" font-size="13.2" lengthAdjust="spacing" textLength="22.8" x="161.4" y="237.3504">true</text><text fill="#000000" font-family="sans-serif" font-size="13.2" lengthAdjust="spacing" textLength="184.8" x="64.2" y="214.1719">Route n&#233;cessite authentification</text><text fill="#000000" font-family="sans-serif" font-size="13.2" lengthAdjust="spacing" textLength="28.8" x="263.4" y="205.3934">false</text><polygon fill="#F1F1F1" points="156.6,558.948,171,573.348,156.6,587.748,142.2,573.348,156.6,558.948" style="stroke:#181818;stroke-width:0.6;"/><rect fill="#F1F1F1" height="43.1531" rx="15" ry="15" style="stroke:#181818;stroke-width:0.6;" width="106.8" x="103.2" y="611.748"/><text fill="#000000" font-family="sans-serif" font-size="14.4" lengthAdjust="spacing" textLength="82.8" x="115.2" y="639.2871">Acc&#232;s Route</text><ellipse cx="156.6" cy="692.1012" fill="none" rx="13.2" ry="13.2" style="stroke:#222222;stroke-width:1.2;"/><ellipse cx="156.6" cy="692.1012" fill="#222222" rx="7.2" ry="7.2" style="stroke:#222222;stroke-width:1.2;"/><line style="stroke:#181818;stroke-width:1.2;" x1="156.6" x2="156.6" y1="36" y2="60"/><polygon fill="#181818" points="151.8,48,156.6,60,161.4,48,156.6,52.8" style="stroke:#181818;stroke-width:1.2;"/><line style="stroke:#181818;stroke-width:1.2;" x1="156.6" x2="156.6" y1="103.1531" y2="127.1531"/><polygon fill="#181818" points="151.8,115.1531,156.6,127.1531,161.4,115.1531,156.6,119.9531" style="stroke:#181818;stroke-width:1.2;"/><line style="stroke:#181818;stroke-width:1.2;" x1="156.6" x2="156.6" y1="349.4379" y2="379.8164"/><polygon fill="#181818" points="151.8,367.8164,156.6,379.8164,161.4,367.8164,156.6,372.6164" style="stroke:#181818;stroke-width:1.2;"/><line style="stroke:#181818;stroke-width:1.2;" x1="225.6" x2="240" y1="335.0379" y2="335.0379"/><polygon fill="#181818" points="235.2,389.393,240,401.393,244.8,389.393,240,394.193" style="stroke:#181818;stroke-width:1.2;"/><line style="stroke:#181818;stroke-width:1.2;" x1="240" x2="240" y1="335.0379" y2="461.3695"/><line style="stroke:#181818;stroke-width:1.2;" x1="240" x2="171" y1="461.3695" y2="461.3695"/><polygon fill="#181818" points="183,456.5695,171,461.3695,183,466.1695,178.2,461.3695" style="stroke:#181818;stroke-width:1.2;"/><line style="stroke:#181818;stroke-width:1.2;" x1="156.6" x2="156.6" y1="422.9695" y2="446.9695"/><polygon fill="#181818" points="151.8,434.9695,156.6,446.9695,161.4,434.9695,156.6,439.7695" style="stroke:#181818;stroke-width:1.2;"/><line style="stroke:#181818;stroke-width:1.2;" x1="156.6" x2="156.6" y1="296.6379" y2="320.6379"/><polygon fill="#181818" points="151.8,308.6379,156.6,320.6379,161.4,308.6379,156.6,313.4379" style="stroke:#181818;stroke-width:1.2;"/><line style="stroke:#181818;stroke-width:1.2;" x1="214.8" x2="314.4" y1="514.1695" y2="514.1695"/><polygon fill="#181818" points="309.6,409.8047,314.4,397.8047,319.2,409.8047,314.4,405.0047" style="stroke:#181818;stroke-width:1.2;"/><line style="stroke:#181818;stroke-width:1.2;" x1="314.4" x2="314.4" y1="275.0613" y2="514.1695"/><line style="stroke:#181818;stroke-width:1.2;" x1="314.4" x2="300" y1="275.0613" y2="275.0613"/><polygon fill="#181818" points="312,270.2613,300,275.0613,312,279.8613,307.2,275.0613" style="stroke:#181818;stroke-width:1.2;"/><line style="stroke:#181818;stroke-width:1.2;" x1="156.6" x2="156.6" y1="475.7695" y2="499.7695"/><polygon fill="#181818" points="151.8,487.7695,156.6,499.7695,161.4,487.7695,156.6,492.5695" style="stroke:#181818;stroke-width:1.2;"/><line style="stroke:#181818;stroke-width:1.2;" x1="156.6" x2="156.6" y1="223.1063" y2="253.4848"/><polygon fill="#181818" points="151.8,241.4848,156.6,253.4848,161.4,241.4848,156.6,246.2848" style="stroke:#181818;stroke-width:1.2;"/><line style="stroke:#181818;stroke-width:1.2;" x1="263.4" x2="336" y1="208.7062" y2="208.7062"/><polygon fill="#181818" points="331.2,382.2164,336,394.2164,340.8,382.2164,336,387.0164" style="stroke:#181818;stroke-width:1.2;"/><line style="stroke:#181818;stroke-width:1.2;" x1="336" x2="336" y1="208.7062" y2="573.348"/><line style="stroke:#181818;stroke-width:1.2;" x1="336" x2="171" y1="573.348" y2="573.348"/><polygon fill="#181818" points="183,568.548,171,573.348,183,578.148,178.2,573.348" style="stroke:#181818;stroke-width:1.2;"/><line style="stroke:#181818;stroke-width:1.2;" x1="156.6" x2="156.6" y1="528.5695" y2="558.948"/><polygon fill="#181818" points="151.8,546.948,156.6,558.948,161.4,546.948,156.6,551.748" style="stroke:#181818;stroke-width:1.2;"/><line style="stroke:#181818;stroke-width:1.2;" x1="156.6" x2="156.6" y1="170.3063" y2="194.3063"/><polygon fill="#181818" points="151.8,182.3063,156.6,194.3063,161.4,182.3063,156.6,187.1063" style="stroke:#181818;stroke-width:1.2;"/><line style="stroke:#181818;stroke-width:1.2;" x1="156.6" x2="156.6" y1="587.748" y2="611.748"/><polygon fill="#181818" points="151.8,599.748,156.6,611.748,161.4,599.748,156.6,604.548" style="stroke:#181818;stroke-width:1.2;"/><line style="stroke:#181818;stroke-width:1.2;" x1="156.6" x2="156.6" y1="654.9012" y2="678.9012"/><polygon fill="#181818" points="151.8,666.9012,156.6,678.9012,161.4,666.9012,156.6,671.7012" style="stroke:#181818;stroke-width:1.2;"/><!--SRC=[NP0nRiCm34LtdO9RxI7rBWz5aMuDEWIz02lJCL5P4YJAXM_KdCCNg-GWA5ek8g7Fzp_uC8c4fBikM7IIP_je_DoX4LvOriF0U8au7pv8KAaa64Nf5vhH3GH7o-IaL_hii-25O664zuWqycUlU8IcVX2uxMee9IujPfdA3eziKDYx5keCZSHChGA850W5z9a6ZcIg11QA2KBb5q_hB-pWbLPZFHONsAjwlVcya8KiR3cXK8xmz1z_AtsCstMtXn3zoFQE8Pi8cX7BSrUJ6tZy3VOriIsIqvx2-5WpLXjEq3ZVWlC2pKgfLNzODuhIpyPitmdsi_JrdZwe7m00]--></g></svg>