<?xml version="1.0" encoding="us-ascii" standalone="no"?>
<svg xmlns="http://www.w3.org/2000/svg" contentStyleType="text/css" height="692px" preserveAspectRatio="none"
     style="width:324px;height:692px;background:#FFFFFF;" version="1.1" viewBox="0 0 324 692" width="324px"
     zoomAndPan="magnify"><defs/><g><ellipse cx="130.5" cy="20" fill="#222222" rx="10" ry="10" style="stroke:#222222;stroke-width:1.0;"/><rect fill="#F1F1F1" height="35.9609" rx="12.5" ry="12.5" style="stroke:#181818;stroke-width:0.5;" width="110" x="75.5" y="50"/><text fill="#000000" font-family="sans-serif" font-size="12" lengthAdjust="spacing" textLength="90" x="85.5" y="72.9492">Demande Client</text><rect fill="#F1F1F1" height="35.9609" rx="12.5" ry="12.5" style="stroke:#181818;stroke-width:0.5;" width="125" x="68" y="105.9609"/><text fill="#000000" font-family="sans-serif" font-size="12" lengthAdjust="spacing" textLength="105" x="78" y="128.9102">Routage via Traefik</text><rect fill="#F1F1F1" height="35.9609" rx="12.5" ry="12.5" style="stroke:#181818;stroke-width:0.5;" width="97" x="82" y="365.8291"/><text fill="#000000" font-family="sans-serif" font-size="12" lengthAdjust="spacing" textLength="77" x="92" y="388.7783">Cr&#233;ation profil</text><polygon fill="#F1F1F1" points="85,316.5137,176,316.5137,188,328.5137,176,340.5137,85,340.5137,73,328.5137,85,316.5137" style="stroke:#181818;stroke-width:0.5;"/><text fill="#000000" font-family="sans-serif" font-size="11" lengthAdjust="spacing" textLength="19" x="134.5" y="352.3838">true</text><text fill="#000000" font-family="sans-serif" font-size="11" lengthAdjust="spacing" textLength="91" x="85" y="333.0684">Nouvel utilisateur ?</text><text fill="#000000" font-family="sans-serif" font-size="11" lengthAdjust="spacing" textLength="24" x="188" y="325.7529">false</text><polygon fill="#F1F1F1" points="130.5,421.79,142.5,433.79,130.5,445.79,118.5,433.79,130.5,421.79" style="stroke:#181818;stroke-width:0.5;"/><rect fill="#F1F1F1" height="35.9609" rx="12.5" ry="12.5" style="stroke:#181818;stroke-width:0.5;" width="239" x="11" y="260.5527"/><text fill="#000000" font-family="sans-serif" font-size="12" lengthAdjust="spacing" textLength="219" x="21" y="283.502">Redirection vers page de login Keycloak</text><polygon fill="#F1F1F1" points="94,465.79,167,465.79,179,477.79,167,489.79,94,489.79,82,477.79,94,465.79" style="stroke:#181818;stroke-width:0.5;"/><text fill="#000000" font-family="sans-serif" font-size="11" lengthAdjust="spacing" textLength="18" x="134.5" y="501.6602">yes</text><text fill="#000000" font-family="sans-serif" font-size="11" lengthAdjust="spacing" textLength="73" x="94" y="482.3447">Login correct ?</text><text fill="#000000" font-family="sans-serif" font-size="11" lengthAdjust="spacing" textLength="12" x="179" y="475.0293">no</text><polygon fill="#F1F1F1" points="82.5,211.2373,178.5,211.2373,190.5,223.2373,178.5,235.2373,82.5,235.2373,70.5,223.2373,82.5,211.2373" style="stroke:#181818;stroke-width:0.5;"/><text fill="#000000" font-family="sans-serif" font-size="11" lengthAdjust="spacing" textLength="24" x="134.5" y="247.1074">false</text><text fill="#000000" font-family="sans-serif" font-size="11" lengthAdjust="spacing" textLength="96" x="82.5" y="227.792">Utilisateur identifi&#233; ?</text><text fill="#000000" font-family="sans-serif" font-size="11" lengthAdjust="spacing" textLength="19" x="190.5" y="220.4766">true</text><polygon fill="#F1F1F1" points="130.5,515.1055,142.5,527.1055,130.5,539.1055,118.5,527.1055,130.5,515.1055" style="stroke:#181818;stroke-width:0.5;"/><polygon fill="#F1F1F1" points="49,161.9219,212,161.9219,224,173.9219,212,185.9219,49,185.9219,37,173.9219,49,161.9219" style="stroke:#181818;stroke-width:0.5;"/><text fill="#000000" font-family="sans-serif" font-size="11" lengthAdjust="spacing" textLength="19" x="134.5" y="197.792">true</text><text fill="#000000" font-family="sans-serif" font-size="11" lengthAdjust="spacing" textLength="163" x="49" y="178.4766">Route n&#233;cessite authentification ?</text><text fill="#000000" font-family="sans-serif" font-size="11" lengthAdjust="spacing" textLength="24" x="224" y="171.1611">false</text><polygon fill="#F1F1F1" points="130.5,559.1055,142.5,571.1055,130.5,583.1055,118.5,571.1055,130.5,559.1055" style="stroke:#181818;stroke-width:0.5;"/><rect fill="#F1F1F1" height="35.9609" rx="12.5" ry="12.5" style="stroke:#181818;stroke-width:0.5;" width="89" x="86" y="603.1055"/><text fill="#000000" font-family="sans-serif" font-size="12" lengthAdjust="spacing" textLength="69" x="96" y="626.0547">Acc&#232;s Route</text><ellipse cx="130.5" cy="670.0664" fill="none" rx="11" ry="11" style="stroke:#222222;stroke-width:1.0;"/><ellipse cx="130.5" cy="670.0664" fill="#222222" rx="6" ry="6" style="stroke:#222222;stroke-width:1.0;"/><line style="stroke:#181818;stroke-width:1.0;" x1="130.5" x2="130.5" y1="30" y2="50"/><polygon fill="#181818" points="126.5,40,130.5,50,134.5,40,130.5,44" style="stroke:#181818;stroke-width:1.0;"/><line style="stroke:#181818;stroke-width:1.0;" x1="130.5" x2="130.5" y1="85.9609" y2="105.9609"/><polygon fill="#181818" points="126.5,95.9609,130.5,105.9609,134.5,95.9609,130.5,99.9609" style="stroke:#181818;stroke-width:1.0;"/><line style="stroke:#181818;stroke-width:1.0;" x1="130.5" x2="130.5" y1="340.5137" y2="365.8291"/><polygon fill="#181818" points="126.5,355.8291,130.5,365.8291,134.5,355.8291,130.5,359.8291" style="stroke:#181818;stroke-width:1.0;"/><line style="stroke:#181818;stroke-width:1.0;" x1="188" x2="200" y1="328.5137" y2="328.5137"/><polygon fill="#181818" points="196,373.8096,200,383.8096,204,373.8096,200,377.8096" style="stroke:#181818;stroke-width:1.0;"/><line style="stroke:#181818;stroke-width:1.0;" x1="200" x2="200" y1="328.5137" y2="433.79"/><line style="stroke:#181818;stroke-width:1.0;" x1="200" x2="142.5" y1="433.79" y2="433.79"/><polygon fill="#181818" points="152.5,429.79,142.5,433.79,152.5,437.79,148.5,433.79" style="stroke:#181818;stroke-width:1.0;"/><line style="stroke:#181818;stroke-width:1.0;" x1="130.5" x2="130.5" y1="401.79" y2="421.79"/><polygon fill="#181818" points="126.5,411.79,130.5,421.79,134.5,411.79,130.5,415.79" style="stroke:#181818;stroke-width:1.0;"/><line style="stroke:#181818;stroke-width:1.0;" x1="130.5" x2="130.5" y1="296.5137" y2="316.5137"/><polygon fill="#181818" points="126.5,306.5137,130.5,316.5137,134.5,306.5137,130.5,310.5137" style="stroke:#181818;stroke-width:1.0;"/><line style="stroke:#181818;stroke-width:1.0;" x1="179" x2="262" y1="477.79" y2="477.79"/><polygon fill="#181818" points="258,390.8193,262,380.8193,266,390.8193,262,386.8193" style="stroke:#181818;stroke-width:1.0;"/><line style="stroke:#181818;stroke-width:1.0;" x1="262" x2="262" y1="278.5332" y2="477.79"/><line style="stroke:#181818;stroke-width:1.0;" x1="262" x2="250" y1="278.5332" y2="278.5332"/><polygon fill="#181818" points="260,274.5332,250,278.5332,260,282.5332,256,278.5332" style="stroke:#181818;stroke-width:1.0;"/><line style="stroke:#181818;stroke-width:1.0;" x1="130.5" x2="130.5" y1="445.79" y2="465.79"/><polygon fill="#181818" points="126.5,455.79,130.5,465.79,134.5,455.79,130.5,459.79" style="stroke:#181818;stroke-width:1.0;"/><line style="stroke:#181818;stroke-width:1.0;" x1="130.5" x2="130.5" y1="235.2373" y2="260.5527"/><polygon fill="#181818" points="126.5,250.5527,130.5,260.5527,134.5,250.5527,130.5,254.5527" style="stroke:#181818;stroke-width:1.0;"/><line style="stroke:#181818;stroke-width:1.0;" x1="190.5" x2="280" y1="223.2373" y2="223.2373"/><polygon fill="#181818" points="276,367.8291,280,377.8291,284,367.8291,280,371.8291" style="stroke:#181818;stroke-width:1.0;"/><line style="stroke:#181818;stroke-width:1.0;" x1="280" x2="280" y1="223.2373" y2="527.1055"/><line style="stroke:#181818;stroke-width:1.0;" x1="280" x2="142.5" y1="527.1055" y2="527.1055"/><polygon fill="#181818" points="152.5,523.1055,142.5,527.1055,152.5,531.1055,148.5,527.1055" style="stroke:#181818;stroke-width:1.0;"/><line style="stroke:#181818;stroke-width:1.0;" x1="130.5" x2="130.5" y1="489.79" y2="515.1055"/><polygon fill="#181818" points="126.5,505.1055,130.5,515.1055,134.5,505.1055,130.5,509.1055" style="stroke:#181818;stroke-width:1.0;"/><line style="stroke:#181818;stroke-width:1.0;" x1="130.5" x2="130.5" y1="185.9219" y2="211.2373"/><polygon fill="#181818" points="126.5,201.2373,130.5,211.2373,134.5,201.2373,130.5,205.2373" style="stroke:#181818;stroke-width:1.0;"/><line style="stroke:#181818;stroke-width:1.0;" x1="224" x2="298" y1="173.9219" y2="173.9219"/><polygon fill="#181818" points="294,367.8291,298,377.8291,302,367.8291,298,371.8291" style="stroke:#181818;stroke-width:1.0;"/><line style="stroke:#181818;stroke-width:1.0;" x1="298" x2="298" y1="173.9219" y2="571.1055"/><line style="stroke:#181818;stroke-width:1.0;" x1="298" x2="142.5" y1="571.1055" y2="571.1055"/><polygon fill="#181818" points="152.5,567.1055,142.5,571.1055,152.5,575.1055,148.5,571.1055" style="stroke:#181818;stroke-width:1.0;"/><line style="stroke:#181818;stroke-width:1.0;" x1="130.5" x2="130.5" y1="539.1055" y2="559.1055"/><polygon fill="#181818" points="126.5,549.1055,130.5,559.1055,134.5,549.1055,130.5,553.1055" style="stroke:#181818;stroke-width:1.0;"/><line style="stroke:#181818;stroke-width:1.0;" x1="130.5" x2="130.5" y1="141.9219" y2="161.9219"/><polygon fill="#181818" points="126.5,151.9219,130.5,161.9219,134.5,151.9219,130.5,155.9219" style="stroke:#181818;stroke-width:1.0;"/><line style="stroke:#181818;stroke-width:1.0;" x1="130.5" x2="130.5" y1="583.1055" y2="603.1055"/><polygon fill="#181818" points="126.5,593.1055,130.5,603.1055,134.5,593.1055,130.5,597.1055" style="stroke:#181818;stroke-width:1.0;"/><line style="stroke:#181818;stroke-width:1.0;" x1="130.5" x2="130.5" y1="639.0664" y2="659.0664"/><polygon fill="#181818" points="126.5,649.0664,130.5,659.0664,134.5,649.0664,130.5,653.0664" style="stroke:#181818;stroke-width:1.0;"/><!--SRC=[PP4xJiGm48Pxds8wac99dnG8BHqhYXKSO70ccn6E7TdZeDo8d2CN8tQqsaLCPOt_noVxeHSPGrrLeq4hSJ2FsWqLQk69PJwqZ1UFm-6J19KAWbvK_K83sfRWQ9YiDAe-koXu8PWOuTqZTVpLAEwWI1S4TbqqXS3R4QFqcuSxrYZiB3oLa3PGY8zKAe1a-n0s750eUk1srw_BJTkX2LdiQIGKgC_KiYUT4oVo0SQ4io4QTs4BhpHhut23WZofuyt5YGp4kwf_BFlKHxykE-teNSVc6aCRnHrCNjcMknlOTyzcavmoXNO-CQOQ3b1OLu9r0iLC8Tdtj6lr7lIdOL-f-bdhzIT0VjicVOeRrIy0]--></g></svg>